<svg width="36" height="34" viewBox="0 0 36 34" fill="none" xmlns="http://www.w3.org/2000/svg">
    <path d="M23.3409 6.98313C21.341 2.89971 17.1577 0.200012 12.4653 0.200012C5.75105 0.200012 0.288619 5.63145 0.288619 12.3075C0.288619 14.1219 0.678135 15.8609 1.44693 17.4822L0.308752 23.1738C0.163877 23.8983 0.803016 24.5387 1.52767 24.3953L7.2894 23.2562C8.05813 23.6213 8.8637 23.9031 9.69236 24.0969C7.84392 15.342 14.4799 7.12413 23.3409 6.98313Z" fill="url(#paint0_radial_30_281)"/>
    <path d="M34.5536 26.338C34.7512 25.9213 34.9247 25.4937 35.0733 25.0571H35.0353C37.6262 17.4524 32.1776 9.4598 24.1339 9.07063L24.1336 9.06939C17.2125 8.75044 11.4623 14.2919 11.4623 21.1633C11.4623 27.8338 16.8838 33.261 23.5521 33.2707C25.3608 33.2682 27.0944 32.8789 28.7111 32.112C35.0213 33.3596 34.5292 33.2709 34.6742 33.2709C35.33 33.2709 35.8199 32.6699 35.6918 32.0296L34.5536 26.338Z" fill="url(#paint1_radial_30_281)"/>
    <defs>
        <radialGradient id="paint0_radial_30_281" cx="0" cy="0" r="1" gradientUnits="userSpaceOnUse" gradientTransform="translate(11.8145 12.3078) scale(11.5264 12.1078)">
            <stop stop-color="#379863"/>
            <stop offset="1" stop-color="#50CA88"/>
        </radialGradient>
        <radialGradient id="paint1_radial_30_281" cx="0" cy="0" r="1" gradientUnits="userSpaceOnUse" gradientTransform="translate(23.5873 21.1643) scale(12.125 12.108)">
            <stop stop-color="#379863"/>
            <stop offset="1" stop-color="#50CA88"/>
        </radialGradient>
    </defs>
</svg>
