<svg width="35" height="40" viewBox="0 0 35 40" fill="none" xmlns="http://www.w3.org/2000/svg">
    <path d="M13.4293 7.95896L14.637 11.2244C15.2997 13.0145 16.3598 14.6402 17.7418 15.9858C19.1238 17.3313 20.7936 18.3634 22.6322 19.0086L25.9861 20.1844C26.0524 20.2081 26.1095 20.251 26.1499 20.3073C26.1903 20.3636 26.212 20.4306 26.212 20.4993C26.212 20.5679 26.1903 20.635 26.1499 20.6913C26.1095 20.7476 26.0524 20.7904 25.9861 20.8141L22.6322 21.9899C20.7936 22.6351 19.1238 23.6673 17.7418 25.0128C16.3598 26.3583 15.2997 27.9841 14.637 29.7742L13.4293 33.0396C13.4051 33.1041 13.361 33.1597 13.3032 33.199C13.2454 33.2384 13.1765 33.2595 13.106 33.2595C13.0354 33.2595 12.9666 33.2384 12.9088 33.199C12.8509 33.1597 12.8069 33.1041 12.7826 33.0396L11.5749 29.7742C10.9123 27.9841 9.85214 26.3583 8.47017 25.0128C7.08819 23.6673 5.41837 22.6351 3.57973 21.9899L0.225836 20.8141C0.15961 20.7904 0.102438 20.7476 0.0620484 20.6913C0.0216589 20.635 0 20.5679 0 20.4993C0 20.4306 0.0216589 20.3636 0.0620484 20.3073C0.102438 20.251 0.15961 20.2081 0.225836 20.1844L3.57973 19.0086C5.41837 18.3634 7.08819 17.3313 8.47017 15.9858C9.85214 14.6402 10.9123 13.0145 11.5749 11.2244L12.7826 7.95896C12.8062 7.89383 12.85 7.83743 12.9079 7.79754C12.9658 7.75764 13.035 7.73622 13.106 7.73622C13.1769 7.73622 13.2461 7.75764 13.304 7.79754C13.3619 7.83743 13.4057 7.89383 13.4293 7.95896ZM28.5264 0.111747L29.1385 1.76495C29.4743 2.67131 30.0113 3.49445 30.7111 4.17578C31.4109 4.85711 32.2563 5.37987 33.1872 5.70686L34.8852 6.30283C34.9189 6.31475 34.9479 6.33647 34.9685 6.36502C34.989 6.39357 35 6.42758 35 6.46244C35 6.49729 34.989 6.53131 34.9685 6.55986C34.9479 6.58841 34.9189 6.61012 34.8852 6.62205L33.1872 7.21802C32.2563 7.54501 31.4109 8.06777 30.7111 8.7491C30.0113 9.43043 29.4743 10.2536 29.1385 11.1599L28.5264 12.8131C28.5141 12.8459 28.4918 12.8742 28.4625 12.8942C28.4332 12.9142 28.3982 12.9249 28.3624 12.9249C28.3266 12.9249 28.2917 12.9142 28.2624 12.8942C28.233 12.8742 28.2107 12.8459 28.1985 12.8131L27.5864 11.1599C27.2505 10.2536 26.7136 9.43043 26.0138 8.7491C25.314 8.06777 24.4686 7.54501 23.5376 7.21802L21.8396 6.62205C21.806 6.61012 21.7769 6.58841 21.7564 6.55986C21.7359 6.53131 21.7249 6.49729 21.7249 6.46244C21.7249 6.42758 21.7359 6.39357 21.7564 6.36502C21.7769 6.33647 21.806 6.31475 21.8396 6.30283L23.5376 5.70686C24.4686 5.37987 25.314 4.85711 26.0138 4.17578C26.7136 3.49445 27.2505 2.67131 27.5864 1.76495L28.1985 0.111747C28.2107 0.0789946 28.233 0.0507042 28.2624 0.0307136C28.2917 0.010723 28.3266 0 28.3624 0C28.3982 0 28.4332 0.010723 28.4625 0.0307136C28.4918 0.0507042 28.5141 0.0789946 28.5264 0.111747ZM28.5264 28.1869L29.1385 29.8401C29.4743 30.7464 30.0113 31.5696 30.7111 32.2509C31.4109 32.9322 32.2563 33.455 33.1872 33.782L34.8852 34.378C34.9189 34.3899 34.9479 34.4116 34.9685 34.4401C34.989 34.4687 35 34.5027 35 34.5376C35 34.5724 34.989 34.6064 34.9685 34.635C34.9479 34.6635 34.9189 34.6852 34.8852 34.6972L33.1872 35.2931C32.2563 35.6201 31.4109 36.1429 30.7111 36.8242C30.0113 37.5056 29.4743 38.3287 29.1385 39.2351L28.5264 40.8883C28.5141 40.921 28.4918 40.9493 28.4625 40.9693C28.4332 40.9893 28.3982 41 28.3624 41C28.3266 41 28.2917 40.9893 28.2624 40.9693C28.233 40.9493 28.2107 40.921 28.1985 40.8883L27.5864 39.2351C27.2505 38.3287 26.7136 37.5056 26.0138 36.8242C25.314 36.1429 24.4686 35.6201 23.5376 35.2931L21.8396 34.6972C21.806 34.6852 21.7769 34.6635 21.7564 34.635C21.7359 34.6064 21.7249 34.5724 21.7249 34.5376C21.7249 34.5027 21.7359 34.4687 21.7564 34.4401C21.7769 34.4116 21.806 34.3899 21.8396 34.378L23.5376 33.782C24.4686 33.455 25.314 32.9322 26.0138 32.2509C26.7136 31.5696 27.2505 30.7464 27.5864 29.8401L28.1985 28.1869C28.2541 28.0375 28.4722 28.0375 28.5264 28.1869Z" fill="url(#paint0_radial_1_49)"/>
    <defs>
        <radialGradient id="paint0_radial_1_49" cx="0" cy="0" r="1" gradientUnits="userSpaceOnUse" gradientTransform="translate(17.5 20.5) scale(17.5 20.5)">
            <stop stop-color="#379863"/>
            <stop offset="1" stop-color="#50CA88"/>
        </radialGradient>
    </defs>
</svg>
